<svg xmlns="http://www.w3.org/2000/svg" viewBox="0 0 97.4 60.8"><g data-name="Layer 2"><path d="M12.2 33.5h15.2c3.4 0 9.2 1.5 9.2 7.9 0 3.4-2.7 7.3-6 7.3H12.2zM60.9 3h27.3v9.1H60.9zm23.7 30.5h-20a9.8 9.8 0 0 1 10.1-9c5.2-.1 9.1 3.6 9.9 9zm-20.7 6h33.5V38c0-12.6-9.1-22.8-22.8-22.8S51.8 25.5 51.8 38c0 12.7 9 22.8 22.8 22.8S94.9 53 96.9 42.5H84.6c-1.1 5.4-4.3 9.2-9.9 9.2-5.9 0-10.3-5.4-10.8-12.2zm-15.1 3a15.21 15.21 0 0 0-10.4-14.3 15.34 15.34 0 0 0 7.2-13A15.17 15.17 0 0 0 30.5 0H0v60.8h30.5a18.31 18.31 0 0 0 18.3-18.3zM27.4 24.4H12.2V12.1h15.2a6.23 6.23 0 0 1 6.2 6.2 6.28 6.28 0 0 1-6.2 6.1z" fill="#5432e2" fill-rule="evenodd" data-name="Слой 1"/></g></svg>