<svg xmlns="http://www.w3.org/2000/svg" viewBox="0 0 149.13 119.63"><g data-name="Layer 2"><path d="M0 0h23.5v39.71c3.89-5 14.27-7.45 23-7.45 23.67 0 39.07 15.88 39.07 42.63 0 27.72-16.86 44.74-41.66 44.74-8.59 0-14.75-1.46-20.43-4.71v3.41H0zm23.5 65.16v22.21c3.89 6.81 9.73 10.37 18.16 10.37 11.83 0 19.61-7.13 19.61-22 0-14.43-7.45-21.56-19.61-21.56-8.59-.04-15.08 3.04-18.16 10.98zM96.12 34h23.51v3.4c1.78-2.43 7.45-5 13-5 8.92 0 12.81 2.59 16.54 7.29l-12 18.81c-1.13-2.11-4.54-3.41-7.62-3.41-3.72 0-7.94 1.62-9.88 8.76v54.46H96.12z" opacity=".13" data-name="Слой 1"/></g></svg>