<svg xmlns="http://www.w3.org/2000/svg" viewBox="0 0 16.66 17.36"><defs><linearGradient id="a" y1="8.68" x2="16.66" y2="8.68" gradientUnits="userSpaceOnUse"><stop offset="0" stop-color="#5432e2"/><stop offset=".31" stop-color="#5c2ee8"/><stop offset=".91" stop-color="#8c50f3"/></linearGradient></defs><g data-name="Layer 2"><path d="M10.51 3.64a.63.63 0 0 0-.43.16L4.8 9.05a2.59 2.59 0 0 0-.85 2 2.21 2.21 0 0 0 .68 1.65 2.56 2.56 0 0 0 1.81.65 2.83 2.83 0 0 0 2-.84l6.15-6.11a3.59 3.59 0 0 0 .09-5.25 3.92 3.92 0 0 0-5.55 0L1.47 8.81a5 5 0 0 0 7.08 7.09l7.93-8a.71.71 0 0 0 .18-.47.67.67 0 0 0-.66-.63.68.68 0 0 0-.46.18l-7.93 8a3.66 3.66 0 1 1-5.19-5.21l7.66-7.67a2.6 2.6 0 0 1 3.65 0 2.25 2.25 0 0 1 .7 1.67 2.55 2.55 0 0 1-.8 1.68L7.5 11.58a1.47 1.47 0 0 1-1 .43 1 1 0 0 1-1.15-.94A1.48 1.48 0 0 1 5.74 10L11 4.75a.67.67 0 0 0-.51-1.11z" fill="url(#a)" data-name="Слой 1"/></g></svg>