<svg version="1.1" id="Слой_1" xmlns="http://www.w3.org/2000/svg" x="0" y="0" viewBox="0 0 210 22.3" xml:space="preserve"><style>.st1{fill:#383838}</style><path class="st1" d="M140.6 7.1c1-4.1 4.7-6.2 8.4-6.2 5 0 7.5 3 7.5 6.8 0 3.9-2.5 6.4-6.3 8.8l-1.4.9h7.8v4.2h-15.8v-3.3l2.4-1.7c4.7-3.3 8.5-5.6 8.5-8.5 0-1.8-1-2.8-3-2.8-2.5 0-3.7 1.6-4.3 3.3l-3.8-1.5zM167.3.9c5.9 0 9.1 4.4 9.1 10.5s-3.1 10.5-9 10.5c-6 0-9.1-4.4-9.1-10.5 0-6 3-10.5 9-10.5zm.1 16.6c2.9 0 4.3-2 4.3-6.1s-1.5-6.1-4.4-6.1c-2.7 0-4.4 2-4.4 6.1 0 4 1.8 6.1 4.5 6.1zM184 1.1h2.9v20.5h-4.4V6.5l-3.7 1.7-1.6-3.7 6.8-3.4zm14 20.8c-3.6 0-6.4-1.5-7.8-3l2.5-3.2c1.1 1 3.3 2 5.3 2 3.6 0 5.1-2.3 5.1-4.4-.9 1.1-2.5 2-5.2 2-5.3 0-8.3-2.8-8.3-6.9 0-4.3 3.5-7.4 8.6-7.4 5.7 0 9.5 3.5 9.5 10-.1 7.2-4.1 10.9-9.7 10.9zm.4-16.8c-2.6 0-4.2 1.3-4.2 3.1s1.7 2.9 3.9 2.9c2.3 0 4.1-1 4.5-2.1-.1-2-1.6-3.9-4.2-3.9zm-88.4-4h15.8v4.3h-11.2v3.8H125v4.1h-10.5v4.1H126v4.3h-16V1.1zM37.3 13.5h-9.2v8.3h-4.6V1.1h4.6v8.1h9.2V1.1h4.6v20.6h-4.6v-8.2zM91 6.9c0-3.3 3.1-6.3 8-6.3 3.5 0 6.3 1.4 8.1 3.8l-3.1 3c-1.2-1.3-2.9-2.5-5.2-2.5-2.1 0-3.1.8-3.1 1.9 0 3.2 11.5 1.4 11.5 8.8 0 3.7-3.4 6.5-7.8 6.5-5 0-8.1-2.4-9.6-5l3.3-2.8c1.4 2.2 3.6 3.5 6.1 3.5 2.3 0 3.2-.9 3.2-1.9 0-3.5-11.4-1.5-11.4-9z"/><path d="M78.3.7c-3.7 0-6 1.1-8.7 4.1l-.4.4 3.1 3.1.5-.3c1.6-1.7 3.4-2.8 5.5-2.8 3 0 5.9 2.4 5.9 6.2s-2.6 6.2-5.9 6.2c-1 0-1.9-.2-2.8-.7l-.3-.2c-.2-.2-.2-.2-.4-.3l-5.3-5.3L66.4 8l-4.7-4.6c-1.9-1.7-4-2.7-6.5-2.7-6 0-10.6 4.7-10.6 10.7 0 6.1 4.7 10.7 10.6 10.7 3.4 0 6.3-1.5 8.3-3.9l.3-.4-3.1-3.1-.3.3c-1.8 1.4-3.1 2.6-5.2 2.6-3.1 0-5.9-2.4-5.9-6.2s2.4-6.2 5.5-6.2c1.5 0 3.2 1 4.3 2.1l11.3 11.4L72 20c1.8 1.3 3.8 2.1 6.3 2.1 5.9 0 10.6-4.6 10.6-10.7S84.2.7 78.3.7z" fill="#5432e2"/><path class="st1" d="M21.3 17.8c-1.9 2.7-5.1 4.2-8.8 4.2C6.1 22.1 2 17.8 2 11.4 2 5.5 6.3.7 12.7.7c3.8 0 6.9 1.6 8.3 3.9l-3.1 2.8c-1.2-1.5-3.2-2.3-4.9-2.3-3.7 0-6.2 2.4-6.2 6.2 0 3.7 2.6 6.2 6.2 6.2 2.3 0 4.3-1 5.7-2.7l2.6 3z"/></svg>