<svg version="1.1" id="Слой_1" xmlns="http://www.w3.org/2000/svg" x="0" y="0" viewBox="0 0 100 100" xml:space="preserve"><style>.st7{fill:#5432e2}</style><path class="st7" d="M81 1H19C9.1 1 1 9.1 1 19v62c0 9.9 8.1 18 18 18h62c9.9 0 18-8.1 18-18V19c0-9.9-8.1-18-18-18zM50 82.3c-17.8 0-32.3-14.5-32.3-32.3 0-17.8 14.5-32.3 32.3-32.3 17.8 0 32.3 14.5 32.3 32.3 0 17.8-14.5 32.3-32.3 32.3zm33.3-57.9c-4.2 0-7.6-3.4-7.6-7.6s3.4-7.6 7.6-7.6c4.2 0 7.6 3.4 7.6 7.6 0 4.2-3.4 7.6-7.6 7.6z"/><path class="st7" d="M50 31.4c-10.3 0-18.6 8.4-18.6 18.6 0 10.3 8.4 18.6 18.6 18.6 10.3 0 18.6-8.4 18.6-18.6 0-10.3-8.3-18.6-18.6-18.6z"/></svg>