<svg xmlns="http://www.w3.org/2000/svg" viewBox="0 0 1470.82 1074.52"><defs><style>.cls-1{fill:#fff}.cls-3{isolation:isolate}</style></defs><g id="Layer_2" data-name="Layer 2"><g id="Layer_1-2" data-name="Layer 1"><path class="cls-1" d="M915.67 507.43c0-20.44 19.33-39.22 49.9-39.22 21.92 0 39.41 9 50.46 23.75l-19.15 18.42c-7.37-8.1-18-15.47-32.41-15.47-13.26 0-19.34 4.79-19.34 12.15 0 19.71 71.82 8.48 71.82 55.07 0 23.39-21 40.88-48.8 40.88-31.12 0-50.83-14.73-59.67-31.49l20.81-17.31c8.48 13.63 22.29 22.1 38.13 22.1 14.36 0 20.07-5.53 20.07-12 0-22.44-71.82-10.1-71.82-56.88zm-434.99 68.36c-11.6 16.94-32 26.52-54.88 26.52-40.15 0-65.93-26.71-65.93-66.67 0-36.83 26.7-66.67 66.67-66.67 23.57 0 42.91 10 52.11 24.5l-19.33 17.68c-7.74-9.58-20.26-14.55-30.76-14.55-23 0-39 15.1-39 39 0 23.2 16.39 39 38.67 39a44.34 44.34 0 0 0 35.55-17.13z"/><path d="M.21 0C21.82 5.41 43.4 11 64.76 17.46c10.68 3.24 21.31 6.68 31.84 10.43l7.87 2.9 7.83 3 7.8 3.13 7.64 3.21a3.45 3.45 0 0 0 1.18.24h2a9.48 9.48 0 0 1 2.89.54c.25.08.46.17.65.25l.55.24 1 .39 7.67 3.21c2.56 1 5.12 2.19 7.67 3.32l7.65 3.47c5.07 2.36 10.18 4.62 15.21 7.08l7.56 3.63 7.5 3.76 3.73 1.86 3.72 1.94 7.44 3.9 7.35 4c2.46 1.34 4.9 2.7 7.32 4.12l7.27 4.2 7.2 4.35c4.82 2.85 9.5 5.93 14.25 8.92a537.5 537.5 0 0 1 54.1 40l6.43 5.52c1.06.93 2.17 1.81 3.18 2.79l3.07 2.91c4.1 3.88 8.08 7.77 12.08 11.71 8 7.9 15.71 16.05 23.08 24.57 14.78 17 28.09 35.48 38.47 55.64a605.05 605.05 0 0 1 28.13 61l-.12-.27c8.18 16.92 15.79 34 24.82 50.17.58 1 1.07 2 1.71 3l1.89 2.89c1.26 1.92 2.49 3.85 3.85 5.74s2.63 3.82 4 5.69l4.15 5.58q8.48 11 18 21.2a288.56 288.56 0 0 0 42 36.6l5.7 4 5.8 3.9c1.93 1.32 3.91 2.51 5.87 3.77 1 .62 2 1.25 3 1.85l3 1.71a278 278 0 0 0 25.05 12.31c8.54 3.72 17.3 6.95 26.12 10 4.43 1.52 8.81 3 13.32 4.27s9 2.62 13.46 3.89c18 5.12 36.11 9.79 54.25 14.4 36.3 9.1 72.79 17.56 109.12 26.86h.14l.19.08c3.51 1.36 7.12 2.53 10.81 3.71 1.84.59 3.71 1.2 5.57 1.84l2.8 1 1.33.5c.48.19.8.26 1.13.37 3.24.86 7.11 1 11.23 1.83a31.32 31.32 0 0 1 3.17.81l2.77.86 5.54 1.71 44.34 13.66 22.18 6.91c7.39 2.32 14.75 4.75 22.13 7.13l22.06 7.39 11 3.84c3.66 1.29 7.33 2.56 11 3.93a848.54 848.54 0 0 1 85.93 36.38c1.75.86 3.52 1.68 5.24 2.58l5.18 2.73 10.35 5.45c1.73.89 3.43 1.84 5.12 2.82l5.08 2.9 10.17 5.79 10 6.14c3.31 2.08 6.67 4.06 9.93 6.2l9.73 6.52 4.86 3.26 2.43 1.64 2.37 1.73c6.29 4.64 12.7 9.11 18.77 14 3.06 2.44 6.16 4.82 9.19 7.3l8.93 7.62c1.48 1.27 3 2.52 4.45 3.82l4.32 4 8.62 8 8.29 8.33 4.14 4.17 4 4.35 7.9 8.71 7.52 9 3.76 4.52 3.55 4.69 7.1 9.37 6.67 9.7 3.32 4.85 3.11 5c2.06 3.33 4.15 6.65 6.19 10l5.61 10.4c.94 1.72 1.92 3.41 2.82 5.15l2.6 5.28c1.72 3.52 3.51 7 5.17 10.56l4.7 10.78c.76 1.8 1.6 3.58 2.3 5.4l2.09 5.5c1.38 3.66 2.82 7.31 4.14 11l3.66 11.17c.59 1.86 1.23 3.71 1.8 5.59l1.56 5.66 3.12 11.33c3.66 15.21 6.55 30.37 10.36 45.2s8.61 29.28 15.51 42.76l-.63-.85a5.56 5.56 0 0 1 1.16 1.71 6.61 6.61 0 0 1 .3.85c.06.25.13.53.17.76a12.21 12.21 0 0 1 .12 2.18 8.34 8.34 0 0 0 0 1c0 .13 0-.19-.32-.45l.61.83a132.37 132.37 0 0 0 28.63 37.3 166.81 166.81 0 0 0 18.68 14.73l5 3.3c1.7 1.07 3.44 2.12 5.12 3.21a74.91 74.91 0 0 0 10.34 5.63c3.6 1.68 7.32 3.2 11 4.87 1.85.83 3.76 1.7 5.54 2.62.9.46 1.78.81 2.67 1.22l2.74 1.15a233.31 233.31 0 0 0 22.83 7.46c3.87 1.13 7.76 2.24 11.63 3.42s7.7 2.39 11.57 3.52a118.91 118.91 0 0 0 23.52 4.89l-.06 1a120.48 120.48 0 0 1-24-3.94c-3.92-1-7.84-2-11.71-3.1s-7.8-2-11.71-3a232.06 232.06 0 0 1-23.41-6.81l-2.87-1.1c-1-.4-2-.78-2.87-1.2-1.84-.88-3.62-1.63-5.48-2.39-3.7-1.52-7.49-2.93-11.26-4.54a77.69 77.69 0 0 1-11.06-5.63c-1.73-1.06-3.47-2-5.21-3.08l-5.2-3.23a174.16 174.16 0 0 1-19.71-14.69 137.52 137.52 0 0 1-30.88-38.39l.61.83a7.67 7.67 0 0 1-.68-.81c-.17-.28-.35-.58-.49-.87a6 6 0 0 1-.3-.84 8.27 8.27 0 0 1-.18-.76 13 13 0 0 1-.15-2.16 5.6 5.6 0 0 0-.06-1 1.57 1.57 0 0 0 .31.49l-.63-.85a175.68 175.68 0 0 1-9.77-21.57c-2.77-7.38-5.11-14.89-7.19-22.43-4.16-15.07-7.34-30.28-11.19-45.09l-3.2-11-1.59-5.5c-.58-1.83-1.23-3.62-1.83-5.44l-3.71-10.84c-1.33-3.58-2.78-7.12-4.17-10.67l-2.1-5.33c-.72-1.77-1.55-3.49-2.32-5.24L1252 823.9c-1.66-3.43-3.45-6.8-5.16-10.21l-2.6-5.1c-.89-1.69-1.88-3.32-2.81-5l-5.64-10c-2-3.25-4.06-6.46-6.09-9.69l-3-4.84-3.27-4.7-6.55-9.38-7-9.08-3.49-4.54-3.69-4.37-7.38-8.75-7.75-8.43-3.88-4.21-4-4-8.08-8.13-8.41-7.79-4.23-3.94c-1.43-1.27-2.9-2.49-4.35-3.74l-8.72-7.45c-3-2.43-6-4.76-9-7.14-5.92-4.85-12.2-9.23-18.36-13.78l-2.32-1.69-2.38-1.61-4.75-3.24-9.51-6.47c-3.19-2.12-6.47-4.1-9.71-6.16l-9.74-6.1-10-5.78-5-2.88c-1.65-1-3.31-1.93-5-2.82l-10.13-5.39-5-2.7c-1.7-.9-3.44-1.72-5.15-2.58a845.27 845.27 0 0 0-84.62-36.75c-3.59-1.39-7.22-2.68-10.84-4l-10.87-4-21.86-7.62q-21.95-7.41-44-14.66c-14.7-4.83-29.4-9.62-44.1-14.56l-5.45-1.88-2.75-.92c-.8-.26-1.58-.48-2.43-.67-3.45-.78-7.38-1-11.62-2.2a14.62 14.62 0 0 1-1.61-.57l-1.37-.54-2.65-1c-1.78-.66-3.58-1.29-5.4-1.92-3.65-1.26-7.39-2.56-11-4.08l.33.11q-27-7.5-54.19-14.67L671.11 498q-27.17-7.17-54.19-15-6.75-1.94-13.5-3.95c-4.51-1.27-9-2.82-13.41-4.36-8.86-3.11-17.66-6.4-26.32-10.08a275.42 275.42 0 0 1-25.41-12.33l-3.1-1.73c-1-.6-2-1.24-3-1.86-2-1.27-4-2.48-6-3.79l-5.9-3.86-5.82-4q-11.55-8.12-22.41-17.18c-1.79-1.54-3.61-3-5.37-4.6l-5.26-4.72-5.16-4.75c-1.72-1.62-3.35-3.33-5-5a292.76 292.76 0 0 1-18.84-21.14l-4.42-5.59c-1.45-1.87-2.82-3.79-4.24-5.69s-2.76-3.86-4.12-5.81l-2-2.94c-.68-1-1.25-2.05-1.88-3.07-9.65-16.28-17.75-33.27-26.3-49.84l-.05-.1-.07-.18c-8.41-20.43-18.45-40.17-28.9-59.74-2.58-4.92-5.28-9.57-8.21-14.2L370 229l-2.28-3.42c-1.5-2.29-3.07-4.53-4.64-6.78a311.72 311.72 0 0 0-20.39-25.8c-7.24-8.28-14.81-16.31-22.6-24.16-3.9-3.9-7.87-7.81-11.83-11.61l-3-2.85c-1-1-2.06-1.82-3.08-2.73l-6.21-5.4c-2.08-1.8-4.24-3.53-6.36-5.3s-4.23-3.55-6.42-5.23c-4.34-3.41-8.65-6.87-13.11-10.13-8.79-6.69-17.87-13-27-19.19A656.9 656.9 0 0 0 186 72.55l-7.36-3.87-7.42-3.74c-4.93-2.54-10-4.88-14.94-7.32s-10-4.71-15.12-7l-7.63-3.45-1.68-.76a3.72 3.72 0 0 0-1.19-.25c-.47 0-1.23 0-2.16-.08a9.42 9.42 0 0 1-2.87-.69L118 41.92l-7.63-3.29-7.68-3.18L95 32.38Q79.47 26.32 63.67 21C42.67 13.85 21.32 7.4 0 1z" fill="#9300d6"/><path class="cls-1" d="M1034.45 471.15H1133v26.71h-70v23.93h65.38v25.78H1063v25.78h71.64v26.71h-100.2zM580.31 548.5H523v51.57h-28.51V471.15H523v50.64h57.3v-50.64h28.55v128.92h-28.54zm238.97 21.78l-1.49-.77a13.37 13.37 0 0 1-3.25-2.39l-32.91-32.86-19.43-19.42-29.48-29c-11.8-10.49-24.77-16.92-40.48-16.92-37.38 0-66.48 29.47-66.48 66.67 0 38.31 29.65 66.67 66.48 66.67 21 0 39.07-9.57 51.62-24.21l.13-.13.08-.09a2.89 2.89 0 0 0 0-4.09l-15.25-15.25a2.87 2.87 0 0 0-4 0l-.25.21c-11.07 8.52-19.16 16-32.28 16-19.52 0-36.83-15.1-36.83-39s14.85-39 34.37-39c9.4 0 20.13 6.29 26.94 13.06L787.46 581a1.51 1.51 0 0 0 .23.21l9.94 8.07c11.2 8 24 13.09 39.08 13.09 36.83 0 66.3-28.73 66.3-66.67 0-38.31-29.47-66.67-66.3-66.67-23.35 0-37.45 6.91-54.1 25.65l-.19.19a2.91 2.91 0 0 0 0 4.09L798 514.47a2.89 2.89 0 0 0 4.09 0l.19-.19c10-10.92 21.1-17.67 34.45-17.67 18.79 0 36.65 15.1 36.65 39s-16.39 39-36.65 39a36.47 36.47 0 0 1-17.38-4.37"/><g class="cls-3"><g class="cls-3"><path class="cls-1" d="M466 652h3v11.15L480.67 652h3.93l-10.89 10.46 11.68 12.64h-4l-10-10.66-2.39 2.39v8.28h-3zm21.37 6h2.77v2.14a6.58 6.58 0 0 1 5.55-2.54c5.08 0 8.22 3.6 8.22 8.68 0 5.25-3.47 9.18-8.55 9.18a7.09 7.09 0 0 1-5.22-1.75v8.05h-2.77zm2.77 5.77v6.41a5.46 5.46 0 0 0 5 2.67c3.4 0 5.84-2.64 5.84-6.37s-2.11-6.27-5.58-6.27a5.67 5.67 0 0 0-5.26 3.51zm31.86 8.07a7.93 7.93 0 0 1-6.86 3.57c-5.45 0-9.15-3.47-9.15-8.91 0-5 3-9 8.75-9 4.52 0 7.92 3 7.92 7.79a12.64 12.64 0 0 1-.16 2.08H509c.17 3.47 2.78 5.38 6.27 5.38a6.17 6.17 0 0 0 5-2.61zm-13-6.93h10.79c-.16-3.07-2.11-4.82-5.18-4.82a5.38 5.38 0 0 0-5.61 4.82z"/></g><g class="cls-3"><path class="cls-1" d="M525.66 660a10.65 10.65 0 0 1 6.87-2.44c4.59 0 7 2.54 7 7v10.59h-2.77v-2.54a7.1 7.1 0 0 1-6 2.77c-3.73 0-6.24-2.08-6.24-5.25 0-3.73 3.27-5.31 8.22-5.31a17.1 17.1 0 0 1 4 .5c0-3.11-1-5.12-4.59-5.12a8.31 8.31 0 0 0-5.12 1.91zm11.13 9.48v-1.75a12.35 12.35 0 0 0-3.67-.5c-3.46 0-5.64.7-5.64 2.77 0 1.79 1.62 2.84 4 2.84a6 6 0 0 0 5.31-3.37z"/></g><g class="cls-3"><path class="cls-1" d="M540.82 658h16v2.61h-6.64v14.55h-2.77v-14.6h-6.57zm18.03 17.11V658h2.77v12.87L572.05 658h2.57v17.16h-2.77v-12.89l-10.46 12.84zm19.8-17.11h7.13c4.69 0 7 1.15 7 4.39a4.15 4.15 0 0 1-2.21 3.73 3.89 3.89 0 0 1 2.77 4.12c0 3.24-2.54 4.92-7.06 4.92h-7.66zm2.77 2.57v4.59h5.22c2 0 3.23-.82 3.23-2.38 0-1.88-1.75-2.21-4.19-2.21zm0 7.1v4.92H586c2.91 0 4.42-.73 4.42-2.48s-1.35-2.44-4.09-2.44zm27.73.01h-9.9v7.43h-2.77V658h2.77v7.13h9.9V658h2.77v17.16h-2.77zm14.92-10.13c5.41 0 9.14 3.73 9.14 9s-3.73 8.91-9.14 8.91a8.66 8.66 0 0 1-9.07-8.96c0-5.22 3.69-8.95 9.07-8.95zm0 15.25a6 6 0 0 0 6.21-6.3 6 6 0 0 0-6.21-6.34 6.32 6.32 0 0 0 0 12.64zm27.27-.96a7.94 7.94 0 0 1-6.87 3.57c-5.44 0-9.14-3.47-9.14-8.91 0-5 3-9 8.75-9 4.52 0 7.92 3 7.92 7.79a12.76 12.76 0 0 1-.17 2.08H638.3c.17 3.47 2.77 5.38 6.27 5.38a6.15 6.15 0 0 0 5-2.61zm-13.07-6.93h10.79c-.17-3.07-2.11-4.82-5.18-4.82a5.38 5.38 0 0 0-5.61 4.82zm26.6-4.91a10.65 10.65 0 0 1 6.87-2.44c4.58 0 7 2.54 7 7v10.59H676v-2.54a7.1 7.1 0 0 1-6 2.77c-3.73 0-6.24-2.08-6.24-5.25 0-3.73 3.27-5.31 8.22-5.31a17.1 17.1 0 0 1 4 .5c0-3.11-1-5.12-4.59-5.12a8.31 8.31 0 0 0-5.12 1.91zm11.13 9.47v-1.75a12.35 12.35 0 0 0-3.67-.5c-3.46 0-5.64.7-5.64 2.77 0 1.79 1.61 2.84 4 2.84a6 6 0 0 0 5.31-3.36z"/></g><g class="cls-3"><path class="cls-1" d="M682.59 658h12.51v2.61h-9.73v14.55h-2.78z"/></g><g class="cls-3"><path class="cls-1" d="M711.61 671.84a7.92 7.92 0 0 1-6.86 3.57c-5.45 0-9.14-3.47-9.14-8.91 0-5 3-9 8.74-9 4.52 0 7.92 3 7.92 7.79a12.64 12.64 0 0 1-.16 2.08h-13.53c.16 3.47 2.77 5.38 6.27 5.38a6.15 6.15 0 0 0 5-2.61zm-13.07-6.93h10.8c-.17-3.07-2.12-4.82-5.19-4.82a5.38 5.38 0 0 0-5.61 4.82zm29.46 2.77h-9.9v7.43h-2.77V658h2.77v7.13h9.9V658h2.77v17.16H728z"/></g><g class="cls-3"><path class="cls-1" d="M750.1 671.58a8 8 0 0 1-7.06 3.83c-5.44 0-9.17-3.47-9.17-8.91a8.65 8.65 0 0 1 9-9c3.07 0 5.81 1.39 7 3.5l-2.14 1.45a5.41 5.41 0 0 0-4.76-2.34 6 6 0 0 0-6.14 6.34c0 3.76 2.61 6.3 6.51 6.3a5.7 5.7 0 0 0 4.81-2.64z"/></g><g class="cls-3"><path class="cls-1" d="M750.66 658h16v2.61H760v14.55h-2.77v-14.6h-6.57zm18.03 0h7.12c4.69 0 7 1.15 7 4.39a4.15 4.15 0 0 1-2.21 3.73 3.9 3.9 0 0 1 2.78 4.12c0 3.24-2.55 4.92-7.07 4.92h-7.65zm2.77 2.57v4.59h5.21c2 0 3.24-.82 3.24-2.38 0-1.88-1.75-2.21-4.19-2.21zm0 7.1v4.92h4.59c2.9 0 4.42-.73 4.42-2.48s-1.35-2.44-4.09-2.44zm23.17-10.12c5.41 0 9.14 3.73 9.14 9s-3.73 8.91-9.14 8.91a8.66 8.66 0 0 1-9.08-8.91c0-5.27 3.7-9 9.08-9zm0 15.25a6 6 0 0 0 6.21-6.3 6 6 0 0 0-6.21-6.34 6.32 6.32 0 0 0 0 12.64zm34.59-12.24h-9.7v14.55h-2.77V658H832v17.16h-2.78z"/></g><g class="cls-3"><path class="cls-1" d="M844.15 657.55c5.42 0 9.15 3.73 9.15 9s-3.73 8.91-9.15 8.91a8.66 8.66 0 0 1-9.07-8.91c0-5.27 3.69-9 9.07-9zm0 15.25a6 6 0 0 0 6.21-6.3 6 6 0 0 0-6.21-6.34 6.32 6.32 0 0 0 0 12.64z"/></g><g class="cls-3"><path class="cls-1" d="M868.12 660.59h-7.26v.79c0 11.42-2.77 14.23-6.83 13.73v-2.64c2.21 0 4.06-1 4.06-11V658h12.8v17.16h-2.77zm19.47 7.09h-9.9v7.43h-2.77V658h2.77v7.13h9.9V658h2.78v17.16h-2.78zm14.93-10.13c5.41 0 9.14 3.73 9.14 9s-3.73 8.91-9.14 8.91a8.66 8.66 0 0 1-9.08-8.91c0-5.27 3.7-9 9.08-9zm0 15.25a6 6 0 0 0 6.2-6.3 6 6 0 0 0-6.2-6.34 6.32 6.32 0 0 0 0 12.64z"/></g><g class="cls-3"><path class="cls-1" d="M914.72 658h12.51v2.61h-9.73v14.55h-2.78z"/></g><g class="cls-3"><path class="cls-1" d="M936.81 657.55c5.42 0 9.15 3.73 9.15 9s-3.73 8.91-9.15 8.91a8.66 8.66 0 0 1-9.07-8.91c0-5.27 3.69-9 9.07-9zm0 15.25a6 6 0 0 0 6.21-6.3 6 6 0 0 0-6.21-6.34 6.32 6.32 0 0 0 0 12.64zm22.12-14.8h2.77v14.52h9.61V658h2.77v14.52h2.41v6.8h-2.61v-4.16h-15zm19.97 17.11V658h2.77v12.87L992.1 658h2.58v17.16h-2.78v-12.89l-10.46 12.84z"/></g><g class="cls-3"><path class="cls-1" d="M998.7 658h2.78v7.69l8.68-7.69h3.72l-8.87 7.89 9.3 9.27h-3.69l-7.73-7.56-1.41 1.32v6.24h-2.78z"/></g><g class="cls-3"><path class="cls-1" d="M1028.05 660.59h-7.26v.79c0 11.42-2.77 14.23-6.83 13.73v-2.64c2.21 0 4.06-1 4.06-11V658h12.8v17.16h-2.77zm6.7-.59a10.65 10.65 0 0 1 6.87-2.44c4.58 0 7 2.54 7 7v10.59h-2.78v-2.54a7.08 7.08 0 0 1-6 2.77c-3.73 0-6.24-2.08-6.24-5.25 0-3.73 3.27-5.31 8.22-5.31a17 17 0 0 1 4 .5c0-3.11-1-5.12-4.58-5.12a8.31 8.31 0 0 0-5.12 1.91zm11.12 9.48v-1.75a12.23 12.23 0 0 0-3.66-.5c-3.46 0-5.64.7-5.64 2.77 0 1.79 1.61 2.84 4 2.84a5.92 5.92 0 0 0 5.3-3.37z"/></g></g></g></g></svg>