<svg xmlns="http://www.w3.org/2000/svg" viewBox="0 0 122.46 51.74"><g data-name="Layer 2"><path d="M71.39 51.16h-14V21.77c0-4.81-1.25-8.67-6.45-8.67-3.28 0-6.46 1.93-8.29 6.07v32h-14V19.46c0-3.76-2.12-6.36-5.88-6.36A9.29 9.29 0 0 0 14 19.27v31.89H0V1.06h14v3.37c2.7-3 7.32-4.33 12-4.33 5.69 0 9.44 1.73 12.91 5.39C42.68 1.64 46.25.1 52 .1c12.45 0 19.39 6.16 19.39 17.72zm8.48-43.45C84.59 2.79 92.78 0 101.93 0c12.91 0 20.53 7.61 20.53 20.81v30.35h-14v-4.53c-2.11 2.5-7.41 5.11-13.48 5.11-11.08 0-18.31-6.46-18.31-16.38 0-11.56 10.79-16.48 22.74-16.48a28.87 28.87 0 0 1 9 1.26c.1-5.11-2.69-7.13-8.09-7.13s-8.67 1.15-13.87 4.81zM108.48 34v-2.3a24.81 24.81 0 0 0-7.61-1.26c-5.58 0-9.73 1.26-9.73 4.92 0 2.7 2.51 4.33 6.75 4.33 4.72 0 8.96-2.5 10.59-5.69z" opacity=".13" data-name="Слой 1"/></g></svg>