<svg version="1.1" id="Layer_1" xmlns="http://www.w3.org/2000/svg" x="0" y="0" viewBox="0 0 321 88.5" xml:space="preserve"><style>.st0{fill:#fff}</style><path class="st0" d="M44 76.2h1.2v4.6l4.8-4.6h1.6l-4.5 4.3 4.8 5.2h-1.6l-4.1-4.4-1 1v3.4H44v-9.5zm8.8 2.4H54v.9c.6-.7 1.4-1.1 2.3-1 1.8 0 3.3 1.4 3.4 3.2v.3c.1 1.9-1.3 3.6-3.2 3.8h-.3c-.8.1-1.5-.2-2.1-.7v3.3h-1.2v-9.8zM54 81v2.7c.4.7 1.2 1.1 2 1.1 1.3 0 2.4-1.1 2.4-2.4v-.2c.2-1.3-.7-2.4-2-2.6H56c-.8 0-1.7.5-2 1.4zm13.2 3.4c-.6 1-1.7 1.5-2.8 1.5-1.9.2-3.6-1.3-3.8-3.2v-.5c-.2-1.9 1.3-3.5 3.1-3.7h.5c1.7-.1 3.2 1.2 3.3 2.9v.3c0 .3 0 .6-.1.9h-5.6c.1 1.3 1.2 2.3 2.4 2.2h.2c.8 0 1.6-.4 2.1-1.1l.7.7zm-5.4-2.9h4.5c0-1.1-.9-2-2-2h-.2c-1.2-.1-2.2.8-2.3 2zm6.9-2c.8-.7 1.8-1 2.8-1 1.4-.2 2.7.8 2.9 2.3v5h-1.1v-1c-.6.8-1.5 1.2-2.5 1.2-1.6 0-2.6-.9-2.6-2.2 0-1.5 1.4-2.2 3.4-2.2.6 0 1.1.1 1.7.2 0-1.3-.4-2.1-1.9-2.1-.8 0-1.5.3-2.1.8l-.6-1zm4.6 3.9v-.7c-.5-.1-1-.2-1.5-.2-1.4 0-2.3.3-2.3 1.2s.7 1.2 1.6 1.2c.9-.1 1.8-.7 2.2-1.5zm1.7-4.8h6.6v1.1h-2.8v6h-1.1v-6H75v-1.1zm7.4 7.1v-7.1h1.2v5.3l4.3-5.3H89v7.1h-1.2v-5.3l-4.3 5.3h-1.1zm8.2-7.1h3c1.9 0 2.9.5 2.9 1.8 0 .7-.4 1.3-1 1.6.7.2 1.2.9 1.2 1.7 0 1.3-1.1 2-2.9 2h-3.2v-7.1zm1.2 1.1v1.9H94c.8 0 1.3-.3 1.3-1s-.7-.9-1.7-.9h-1.8zm0 2.9v2h1.9c1.2 0 1.8-.3 1.8-1s-.6-1-1.7-1h-2zm11.5.1h-4.1v3.1H98v-7.1h1.1v3h4.1v-3h1.1v7.1h-1.1l.1-3.1zm6.2-4.3c2 0 3.7 1.7 3.6 3.8 0 2-1.7 3.7-3.8 3.6-2 0-3.6-1.7-3.6-3.7-.1-2 1.5-3.6 3.5-3.7h.3zm0 6.4c1.4 0 2.5-1 2.5-2.4v-.2c.1-1.4-1-2.6-2.4-2.6h-.2c-1.4.1-2.5 1.3-2.5 2.8.2 1.2 1.2 2.3 2.6 2.4zm11.3-.4c-.6 1-1.7 1.5-2.8 1.5-1.9.2-3.6-1.3-3.8-3.2v-.5c-.2-1.9 1.3-3.5 3.1-3.7h.5c1.7-.1 3.2 1.2 3.2 3v.3c0 .3 0 .6-.1.9h-5.6c.1 1.3 1.2 2.3 2.4 2.2h.2c.8 0 1.6-.4 2.1-1.1l.8.6zm-5.5-2.9h4.5c0-1.1-.9-2-2-2h-.2c-1.1-.1-2.1.8-2.3 2zm11.1-2c.8-.7 1.8-1 2.9-1 1.4-.2 2.7.8 2.9 2.3v5H131v-1c-.6.8-1.5 1.2-2.5 1.2-1.5 0-2.6-.9-2.6-2.2 0-1.5 1.3-2.2 3.4-2.2.6 0 1.1.1 1.7.2 0-1.3-.4-2.1-1.9-2.1-.8 0-1.5.3-2.1.8l-.6-1zm4.6 3.9v-.7c-.5-.1-1-.2-1.5-.2-1.4 0-2.3.3-2.3 1.2s.7 1.2 1.6 1.2c.9-.1 1.8-.7 2.2-1.5zm2.7-4.8h5.2v1.1h-4v6h-1.1l-.1-7.1zm12 5.8c-.6 1-1.7 1.5-2.9 1.5-1.9.2-3.6-1.3-3.8-3.2v-.5c-.2-1.9 1.2-3.5 3.1-3.7h.5c1.7-.1 3.2 1.2 3.3 2.9v.3c0 .3 0 .6-.1.9h-5.6c0 1.3 1.1 2.3 2.4 2.2h.2c.8 0 1.6-.4 2.1-1.1l.8.7zm-5.4-2.9h4.5c0-1.1-.9-2-2-2h-.1c-1.2-.1-2.3.8-2.4 2zm12.2 1.2h-4.1v3.1h-1.1v-7.1h1.1v3h4.1v-3h1.1v7.1h-1.1v-3.1zm9.2 1.6c-.6 1-1.7 1.6-2.9 1.6-1.9.2-3.6-1.3-3.8-3.2v-.4c-.1-2 1.5-3.6 3.5-3.7h.3c1.1-.1 2.2.5 2.9 1.4l-.9.6c-.4-.7-1.2-1-2-1-1.4 0-2.6 1.1-2.7 2.6s1.1 2.6 2.6 2.7h.3c.8 0 1.6-.4 2-1.1l.7.5zm.2-5.7h6.6v1.1h-2.8v6h-1.1v-6h-2.7v-1.1zm7.5 0h3c1.9 0 2.9.5 2.9 1.8 0 .6-.3 1.2-.9 1.6.7.2 1.2.9 1.1 1.7 0 1.3-1.1 2-2.9 2h-3.2v-7.1zm1.1 1.1v1.9h2.2c.8 0 1.3-.3 1.3-1s-.7-.9-1.7-.9h-1.8zm0 2.9v2h1.9c1.2 0 1.8-.3 1.8-1s-.6-1-1.7-1h-2zm9.6-4.2c2 0 3.7 1.7 3.6 3.8 0 2-1.7 3.7-3.8 3.6-2 0-3.6-1.7-3.6-3.7-.1-2 1.5-3.6 3.5-3.7h.3zm0 6.4c1.4.1 2.5-1 2.6-2.4v-.3c.1-1.4-1-2.6-2.4-2.6h-.2c-1.4.1-2.5 1.3-2.5 2.8.1 1.3 1.2 2.4 2.5 2.5zm14.4-5.1h-4v6h-1.1v-7.1h6.3v7.1h-1.1l-.1-6zm6.1-1.3c2 0 3.7 1.7 3.6 3.8 0 2-1.7 3.7-3.8 3.6-2 0-3.6-1.7-3.6-3.7-.1-2 1.5-3.6 3.5-3.7h.3zm0 6.4c1.4.1 2.5-1 2.6-2.3v-.3c.1-1.4-1-2.6-2.4-2.6h-.2c-1.4.1-2.5 1.3-2.5 2.8.2 1.2 1.2 2.3 2.5 2.4zm10-5.1h-3v.3c0 4.7-1.1 5.9-2.8 5.7v-1.1c.9 0 1.7-.4 1.7-4.6v-1.5h5.3v7.1h-1.1l-.1-5.9zm8 3h-4.1v3.1h-1.1v-7.1h1.1v3h4.1v-3h1.1v7.1h-1.1v-3.1zm6.2-4.3c2 0 3.7 1.7 3.6 3.8 0 2-1.7 3.7-3.8 3.6-2 0-3.6-1.7-3.6-3.7-.1-2 1.5-3.6 3.5-3.7h.3zm0 6.4c1.4.1 2.5-1 2.6-2.3v-.3c.1-1.4-1-2.6-2.4-2.6h-.2c-1.4.1-2.5 1.3-2.5 2.8.1 1.2 1.2 2.3 2.5 2.4zm5.1-6.2h5.2v1.1h-4v6H230l-.1-7.1zm9.1-.2c2 0 3.7 1.7 3.6 3.8 0 2-1.7 3.7-3.8 3.6-2 0-3.6-1.7-3.6-3.7-.1-2 1.5-3.6 3.5-3.7h.3zm0 6.4c1.4.1 2.5-1 2.6-2.3v-.3c.1-1.4-1-2.6-2.4-2.6h-.2c-1.4.1-2.5 1.3-2.5 2.8.1 1.2 1.2 2.3 2.5 2.4zm9.2-6.2h1.1v6h4v-6h1.1v6h1v2.8h-1.1v-1.7h-6.2l.1-7.1zm8.3 7.1v-7.1h1.1v5.3l4.3-5.3h1.1v7.1h-1.1v-5.3l-4.3 5.3h-1.1zm8.2-7.1h1.1v3.2l3.6-3.2h1.6l-3.7 3.3 3.9 3.8h-1.5l-3.2-3.1-.6.6v2.6h-1.1l-.1-7.2z"/><path class="st0" d="M276.8 79.7h-3v.3c0 4.7-1.1 5.9-2.8 5.7v-1.1c.9 0 1.7-.4 1.7-4.6v-1.5h5.3v7.1h-1.1l-.1-5.9zm2.8-.2c.8-.7 1.8-1 2.8-1 1.4-.2 2.7.8 2.9 2.3v5h-1.1v-1c-.6.8-1.5 1.2-2.5 1.2-1.5 0-2.6-.9-2.6-2.2 0-1.5 1.4-2.2 3.4-2.2.6 0 1.1.1 1.7.2 0-1.3-.4-2.1-1.9-2.1-.8 0-1.5.3-2.1.8l-.6-1zm4.6 3.9v-.7c-.5-.1-1-.2-1.5-.2-1.4 0-2.3.3-2.3 1.2s.7 1.2 1.6 1.2c.9-.1 1.8-.7 2.2-1.5zm-53.9-67.2c0-8.5 8-16.2 20.7-16.2 9.1 0 16.3 3.7 20.9 9.8l-7.9 7.6c-3.1-3.4-7.5-6.4-13.4-6.4-5.5 0-8 2-8 5 0 8.2 29.7 3.5 29.7 22.8 0 9.7-8.7 16.9-20.2 16.9-12.9 0-21-6.1-24.7-13l8.6-7.2c3.5 5.6 9.2 9.1 15.8 9.1 5.9 0 8.3-2.3 8.3-5 0-9.1-29.8-4-29.8-23.4zm-180 28.3c-4.8 7-13.2 11-22.7 11C11 55.5.3 44.4.3 27.9.3 12.7 11.4.3 27.9.3c9.8 0 17.8 4.1 21.6 10.1l-8 7.3c-3.2-4-8.4-6-12.7-6-9.5 0-16.1 6.3-16.1 16.1 0 9.6 6.8 16.1 16 16.1 5.7.1 11.2-2.6 14.7-7.1l6.9 7.7zM279.5 1.2h40.8v11.1h-29v9.9h27.1v10.7h-27.1v10.7H321v11.1h-41.5V1.2zm-188 32H67.8v21.3H56V1.2h11.8v21h23.7v-21h11.8v53.4H91.5V33.2zm98.9 9.1l-.6-.3c-.5-.3-.9-.6-1.3-1l-13.6-13.6-8-8-12.2-12c-4.9-4.3-10.3-7-16.8-7-15.5 0-27.5 12.2-27.5 27.6 0 15.9 12.3 27.6 27.5 27.6 8.7 0 16.2-4 21.4-10l.1-.1c.5-.5.5-1.2 0-1.7l-6.3-6.3c-.5-.4-1.2-.4-1.7 0l-.1.1c-4.6 3.5-7.9 6.6-13.4 6.6-8.1 0-15.2-6.3-15.2-16.1S128.8 12 136.9 12c3.9 0 8.3 2.6 11.2 5.4l29.3 29.5.1.1 4.1 3.3c4.6 3.3 9.9 5.4 16.2 5.4 15.2 0 27.4-11.9 27.4-27.6C225.2 12.2 213 .5 197.8.5c-9.7 0-15.5 2.9-22.4 10.6l-.1.1c-.5.5-.5 1.2 0 1.7l6.4 6.4c.5.5 1.2.5 1.7 0l.1-.1c4.1-4.5 8.7-7.3 14.3-7.3 7.8 0 15.2 6.3 15.2 16.1s-7 16-15.3 16c-2.6.1-5-.6-7.3-1.7"/></svg>