<svg version="1.1" id="Слой_1" xmlns="http://www.w3.org/2000/svg" x="0" y="0" viewBox="0 0 100 100" xml:space="preserve"><style/><g fill-rule="evenodd" clip-rule="evenodd"><path d="M99.6 47.8C98.9 21.8 77.6 1 51.2 1 25.2 1 4 21.3 2.9 46.9c-.1.6-.1 1.4-.1 2.1 0 9 2.6 17.5 7 24.8L1 99.6l26.9-8.5c7 3.8 14.9 5.9 23.4 5.9C78 97 99.7 75.6 99.7 49c0-.4-.1-.8-.1-1.2z" fill="#5432e2"/><path d="M73.4 58.7c-1.2-.6-7-3.5-8.1-3.9-1.2-.3-1.9-.6-2.7.6-.8 1.2-3.1 3.8-3.7 4.5-.7.9-1.4.9-2.5.4-1.3-.6-5.1-1.8-9.6-5.9-3.6-3.2-6-7-6.6-8.1-.6-1.3-.1-1.8.5-2.5.6-.5 1.2-1.3 1.8-2 .2-.2.3-.3.4-.5.3-.5.5-.9.7-1.4.4-.8.3-1.5-.1-2-.2-.6-2.6-6.5-3.6-8.8-1-2.4-2-2-2.6-2-.8 0-1.5-.1-2.3-.1-.9 0-2.1.3-3.2 1.5-1.2 1.2-4.2 4-4.2 9.8 0 1.3.3 2.7.7 4 1.1 4.2 3.8 7.6 4.2 8.2.6.8 8.2 13.1 20.3 17.8C64.9 73 64.9 71.4 67 71.2c2.1-.2 7-2.8 8-5.6 1-2.7 1-5.1.6-5.6-.2-.4-1-.7-2.2-1.3z" fill="#fff"/></g></svg>