<?xml version="1.0" standalone="no"?>
<!DOCTYPE svg PUBLIC "-//W3C//DTD SVG 20010904//EN"
 "http://www.w3.org/TR/2001/REC-SVG-20010904/DTD/svg10.dtd">
<svg version="1.0" xmlns="http://www.w3.org/2000/svg"
 width="2084.000000pt" height="2084.000000pt" viewBox="0 0 2084.000000 2084.000000"
 preserveAspectRatio="xMidYMid meet">
<metadata>
Created by potrace 1.11, written by Peter Selinger 2001-2013
</metadata>
<g transform="translate(0.000000,2084.000000) scale(0.100000,-0.100000)"
fill="#000000" stroke="none">
<path d="M4798 15555 c-2 -1 -63 -5 -135 -9 -124 -6 -164 -9 -253 -21 -19 -2
-60 -7 -90 -10 -30 -4 -80 -10 -110 -16 -30 -5 -73 -11 -95 -14 -22 -4 -47 -8
-55 -10 -8 -3 -33 -7 -55 -10 -22 -4 -58 -11 -80 -17 -22 -5 -51 -12 -65 -15
-33 -5 -217 -51 -255 -63 -16 -6 -84 -26 -150 -46 -643 -194 -1323 -582 -1829
-1044 -63 -58 -268 -262 -327 -326 -186 -202 -369 -445 -554 -734 -81 -127
-238 -422 -310 -585 -95 -215 -220 -569 -260 -735 -2 -8 -15 -60 -29 -115 -48
-192 -93 -442 -111 -620 -4 -33 -8 -71 -10 -83 -27 -168 -27 -863 0 -1067 2
-16 7 -55 10 -85 11 -102 26 -211 39 -276 2 -12 7 -39 10 -60 9 -56 35 -182
48 -229 5 -22 12 -50 14 -63 3 -12 15 -61 28 -110 107 -385 199 -625 371 -967
93 -183 106 -207 120 -217 6 -4 6 -8 1 -8 -5 0 -3 -7 4 -15 6 -8 37 -56 68
-108 296 -486 748 -984 1197 -1318 55 -40 102 -76 105 -80 8 -8 238 -160 310
-204 218 -132 534 -288 760 -374 47 -18 94 -37 105 -41 60 -25 341 -115 388
-125 9 -2 45 -11 80 -20 95 -26 297 -70 362 -81 20 -3 47 -8 59 -10 49 -10
296 -44 357 -49 187 -16 271 -20 514 -20 241 0 452 8 528 20 12 2 49 6 82 10
81 8 247 33 298 44 23 5 60 12 82 16 33 5 96 19 228 51 9 2 26 6 37 8 122 27
412 121 591 192 340 133 746 351 1020 546 25 18 73 52 105 74 247 173 593 486
832 754 42 47 116 126 166 177 l90 92 -722 721 c-397 397 -726 720 -731 718
-5 -1 -51 -42 -103 -90 -51 -47 -115 -103 -143 -124 -92 -69 -220 -168 -225
-175 -12 -15 -427 -324 -545 -406 -358 -249 -679 -405 -1000 -487 -102 -26
-123 -30 -204 -42 -25 -4 -55 -8 -66 -11 -79 -15 -335 -20 -500 -10 -105 7
-139 11 -212 22 -18 3 -50 8 -70 11 -130 19 -355 81 -508 139 -189 71 -467
218 -600 317 -214 160 -439 376 -566 543 -318 418 -507 879 -584 1430 -31 222
-36 665 -10 845 2 19 7 63 10 97 3 34 8 72 10 84 3 13 7 41 10 64 25 173 93
431 163 621 38 102 131 314 147 334 6 8 24 39 39 69 163 319 515 693 846 898
208 128 515 256 720 298 186 39 249 48 405 61 203 18 407 6 580 -32 39 -9 81
-18 95 -21 72 -13 322 -100 435 -151 82 -36 288 -142 355 -182 65 -38 273
-172 280 -180 3 -3 30 -23 60 -45 50 -36 189 -145 216 -170 6 -5 43 -39 83
-73 39 -35 122 -115 184 -177 98 -99 1560 -1570 2577 -2595 1570 -1581 2511
-2529 2600 -2616 58 -57 220 -197 360 -310 140 -113 264 -213 275 -222 308
-260 773 -548 1155 -716 36 -15 80 -35 98 -43 174 -77 578 -213 739 -248 10
-2 59 -13 110 -24 51 -12 109 -24 130 -27 21 -3 40 -7 43 -9 3 -2 42 -8 86
-14 44 -7 91 -14 105 -16 13 -3 53 -7 89 -10 36 -3 72 -8 80 -10 46 -12 231
-19 500 -19 305 -1 365 2 608 29 104 12 280 39 352 55 48 10 87 18 135 26 17
3 100 23 185 45 698 181 1361 517 1900 964 140 117 140 116 330 305 184 183
239 242 305 325 22 28 43 52 46 55 3 3 33 41 67 85 34 44 65 85 70 90 21 26
132 188 173 250 150 231 284 487 419 800 86 198 225 645 255 814 3 19 8 37 10
41 2 4 7 22 10 41 5 33 10 59 21 109 9 44 44 283 49 340 3 30 7 69 10 85 34
258 33 791 -1 1095 -16 140 -23 193 -44 325 -57 348 -150 688 -280 1020 -69
175 -76 192 -174 390 -175 355 -373 660 -637 975 -112 134 -377 406 -499 510
-41 36 -77 67 -80 70 -3 3 -27 24 -55 45 -27 22 -52 42 -55 45 -3 3 -48 37
-100 76 -285 214 -608 404 -930 549 -90 41 -365 151 -395 159 -5 1 -68 21
-139 44 -71 23 -143 45 -160 48 -16 3 -33 7 -38 10 -8 5 -180 48 -230 58 -13
2 -43 9 -68 14 -25 6 -61 13 -80 16 -19 3 -46 8 -60 11 -29 6 -128 22 -185 30
-22 3 -56 8 -75 11 -19 2 -57 7 -85 9 -27 3 -68 7 -90 10 -115 13 -256 18
-500 19 -246 0 -571 -10 -584 -19 -3 -2 -46 -6 -96 -9 -49 -3 -101 -8 -115
-10 -14 -3 -47 -7 -75 -11 -109 -13 -322 -50 -415 -71 -36 -9 -76 -17 -90 -19
-36 -5 -335 -92 -400 -116 -30 -11 -59 -22 -65 -23 -5 -2 -19 -7 -30 -11 -11
-5 -51 -20 -90 -35 -216 -83 -460 -208 -700 -358 -49 -31 -92 -59 -95 -62 -3
-3 -34 -25 -70 -49 -119 -81 -369 -277 -489 -386 -25 -22 -72 -65 -105 -95
-96 -87 -412 -405 -516 -520 -52 -58 -132 -143 -178 -190 -46 -46 -88 -90 -94
-97 -8 -10 163 -186 727 -750 l737 -737 242 245 c244 248 370 366 506 474 41
33 77 62 80 65 3 3 46 35 95 72 213 157 436 288 650 382 61 26 124 54 140 62
60 27 278 94 385 119 58 14 162 35 195 40 23 3 50 7 60 9 24 5 153 18 215 22
131 9 367 3 480 -11 450 -56 841 -201 1206 -445 494 -331 886 -847 1080 -1420
15 -47 29 -88 30 -92 1 -5 2 -9 4 -10 1 -2 3 -10 5 -18 2 -8 17 -69 34 -135
28 -113 33 -135 46 -217 3 -18 10 -58 15 -88 23 -141 31 -268 32 -495 0 -180
-3 -253 -17 -365 -2 -19 -7 -60 -10 -90 -3 -30 -8 -66 -10 -80 -3 -14 -7 -41
-10 -60 -5 -29 -22 -114 -40 -200 -23 -107 -88 -315 -143 -450 -98 -245 -255
-514 -407 -696 -128 -154 -294 -322 -368 -373 -12 -8 -24 -18 -27 -21 -12 -15
-133 -102 -210 -152 -196 -127 -460 -251 -658 -308 -110 -32 -232 -62 -309
-75 -140 -25 -194 -32 -303 -41 -151 -12 -439 -7 -565 10 -160 23 -164 23
-285 51 -208 47 -422 124 -630 229 -240 121 -287 149 -356 211 -7 5 -974 971
-2150 2145 -1177 1175 -2337 2330 -2579 2567 -242 237 -510 500 -595 583 -891
875 -919 902 -1070 1027 -404 334 -885 630 -1290 793 -58 23 -114 46 -125 51
-25 11 -290 99 -313 104 -9 2 -71 17 -137 34 -66 16 -135 33 -154 36 -19 3
-37 7 -40 9 -3 2 -31 7 -61 11 -30 4 -57 8 -60 10 -3 2 -34 6 -70 10 -36 4
-67 8 -70 10 -3 1 -41 6 -85 10 -44 3 -98 9 -120 12 -39 5 -502 12 -507 8z"/>
</g>
</svg>
