<svg xmlns="http://www.w3.org/2000/svg" viewBox="0 0 97.4 60.8"><defs><style>.cls-1{fill:#5432e2;fill-rule:evenodd;}</style></defs><title>be</title><g id="Layer_2" data-name="Layer 2"><g id="Слой_1" data-name="Слой 1"><path class="cls-1" d="M12.2,33.5H27.4c3.4,0,9.2,1.5,9.2,7.9,0,3.4-2.7,7.3-6,7.3H12.2ZM60.9,3H88.2v9.1H60.9ZM84.6,33.5h-20a9.8,9.8,0,0,1,10.1-9c5.2-.1,9.1,3.6,9.9,9Zm-20.7,6H97.4V38c0-12.6-9.1-22.8-22.8-22.8S51.8,25.5,51.8,38c0,12.7,9,22.8,22.8,22.8S94.9,53,96.9,42.5H84.6c-1.1,5.4-4.3,9.2-9.9,9.2-5.9,0-10.3-5.4-10.8-12.2Zm-15.1,3A15.21,15.21,0,0,0,38.4,28.2a15.34,15.34,0,0,0,7.2-13A15.17,15.17,0,0,0,30.5,0H0V60.8H30.5A18.31,18.31,0,0,0,48.8,42.5ZM27.4,24.4H12.2V12.1H27.4a6.23,6.23,0,0,1,6.2,6.2,6.28,6.28,0,0,1-6.2,6.1Z"/></g></g></svg>