<svg xmlns="http://www.w3.org/2000/svg" xmlns:xlink="http://www.w3.org/1999/xlink" viewBox="0 0 16.66 17.36"><defs><style>.cls-1{fill:url(#Безымянный_градиент_26);}</style><linearGradient id="Безымянный_градиент_26" y1="8.68" x2="16.66" y2="8.68" gradientUnits="userSpaceOnUse"><stop offset="0" stop-color="#5432e2"/><stop offset="0.31" stop-color="#5c2ee8"/><stop offset="0.91" stop-color="#8c50f3"/></linearGradient></defs><title>file-upload</title><g id="Layer_2" data-name="Layer 2"><g id="Слой_1" data-name="Слой 1"><path class="cls-1" d="M10.51,3.64a.63.63,0,0,0-.43.16h0L4.8,9.05a2.59,2.59,0,0,0-.85,2,2.21,2.21,0,0,0,.68,1.65,2.56,2.56,0,0,0,1.81.65h0a2.83,2.83,0,0,0,2-.84L14.59,6.4a3.59,3.59,0,0,0,.09-5.25,3.92,3.92,0,0,0-5.55,0L1.47,8.81A5,5,0,0,0,8.55,15.9l7.93-8a.71.71,0,0,0,.18-.47A.67.67,0,0,0,16,6.8a.68.68,0,0,0-.46.18h0l-7.93,8A3.66,3.66,0,1,1,2.42,9.77L10.08,2.1a2.6,2.6,0,0,1,3.65,0,2.25,2.25,0,0,1,.7,1.67,2.55,2.55,0,0,1-.8,1.68L7.5,11.58a1.47,1.47,0,0,1-1,.43,1,1,0,0,1-1.15-.94A1.48,1.48,0,0,1,5.74,10L11,4.75h0a.67.67,0,0,0-.51-1.11Z"/></g></g></svg>