<?xml version="1.0" encoding="utf-8"?>
<!-- Generator: Adobe Illustrator 23.0.1, SVG Export Plug-In . SVG Version: 6.00 Build 0)  -->
<svg version="1.1" id="Слой_1" xmlns="http://www.w3.org/2000/svg" xmlns:xlink="http://www.w3.org/1999/xlink" x="0px" y="0px"
	 viewBox="0 0 210 22.3" style="enable-background:new 0 0 210 22.3;" xml:space="preserve">
<style type="text/css">
	.st0{enable-background:new    ;}
	.st1{fill:#383838;}
	.st2{fill:#5432E2;}
</style>
<g class="st0">
	<path class="st1" d="M140.6,7.1c1-4.1,4.7-6.2,8.4-6.2c5,0,7.5,3,7.5,6.8c0,3.9-2.5,6.4-6.3,8.8l-1.4,0.9h7.8v4.2h-15.8v-3.3
		l2.4-1.7c4.7-3.3,8.5-5.6,8.5-8.5c0-1.8-1-2.8-3-2.8c-2.5,0-3.7,1.6-4.3,3.3L140.6,7.1z"/>
	<path class="st1" d="M167.3,0.9c5.9,0,9.1,4.4,9.1,10.5c0,6.1-3.1,10.5-9,10.5c-6,0-9.1-4.4-9.1-10.5
		C158.3,5.4,161.3,0.9,167.3,0.9z M167.4,17.5c2.9,0,4.3-2,4.3-6.1c0-4.1-1.5-6.1-4.4-6.1c-2.7,0-4.4,2-4.4,6.1
		C162.9,15.4,164.7,17.5,167.4,17.5z"/>
	<path class="st1" d="M184,1.1h2.9v20.5h-4.4V6.5l-3.7,1.7l-1.6-3.7L184,1.1z"/>
	<path class="st1" d="M198,21.9c-3.6,0-6.4-1.5-7.8-3l2.5-3.2c1.1,1,3.3,2,5.3,2c3.6,0,5.1-2.3,5.1-4.4c-0.9,1.1-2.5,2-5.2,2
		c-5.3,0-8.3-2.8-8.3-6.9c0-4.3,3.5-7.4,8.6-7.4c5.7,0,9.5,3.5,9.5,10C207.6,18.2,203.6,21.9,198,21.9z M198.4,5.1
		c-2.6,0-4.2,1.3-4.2,3.1c0,1.8,1.7,2.9,3.9,2.9c2.3,0,4.1-1,4.5-2.1C202.5,7,201,5.1,198.4,5.1z"/>
</g>
<g>
	<g>
		<path class="st1" d="M110,1.1h15.8v4.3h-11.2v3.8H125v4.1h-10.5v4.1H126v4.3h-16V1.1z"/>
	</g>
	<g>
		<path class="st1" d="M37.3,13.5h-9.2v8.3h-4.6V1.1h4.6v8.1h9.2V1.1h4.6v20.6h-4.6V13.5z"/>
	</g>
	<g>
		<path class="st1" d="M91,6.9c0-3.3,3.1-6.3,8-6.3c3.5,0,6.3,1.4,8.1,3.8l-3.1,3c-1.2-1.3-2.9-2.5-5.2-2.5c-2.1,0-3.1,0.8-3.1,1.9
			c0,3.2,11.5,1.4,11.5,8.8c0,3.7-3.4,6.5-7.8,6.5c-5,0-8.1-2.4-9.6-5l3.3-2.8c1.4,2.2,3.6,3.5,6.1,3.5c2.3,0,3.2-0.9,3.2-1.9
			C102.4,12.4,91,14.4,91,6.9z"/>
	</g>
	<g>
		<path class="st2" d="M78.3,0.7c-3.7,0-6,1.1-8.7,4.1l-0.4,0.4l3.1,3.1L72.8,8c1.6-1.7,3.4-2.8,5.5-2.8c3,0,5.9,2.4,5.9,6.2
			s-2.6,6.2-5.9,6.2c-1,0-1.9-0.2-2.8-0.7l-0.3-0.2c-0.2-0.2-0.2-0.2-0.4-0.3l-5.3-5.3L66.4,8l-4.7-4.6l0,0c-1.9-1.7-4-2.7-6.5-2.7
			c-6,0-10.6,4.7-10.6,10.7c0,6.1,4.7,10.7,10.6,10.7c3.4,0,6.3-1.5,8.3-3.9l0,0l0.3-0.4l-3.1-3.1L60.4,15c-1.8,1.4-3.1,2.6-5.2,2.6
			c-3.1,0-5.9-2.4-5.9-6.2s2.4-6.2,5.5-6.2c1.5,0,3.2,1,4.3,2.1l11.3,11.4L72,20c1.8,1.3,3.8,2.1,6.3,2.1c5.9,0,10.6-4.6,10.6-10.7
			C88.9,5.3,84.2,0.7,78.3,0.7z"/>
	</g>
	<g>
		<path class="st1" d="M21.3,17.8c-1.9,2.7-5.1,4.2-8.8,4.2C6.1,22.1,2,17.8,2,11.4C2,5.5,6.3,0.7,12.7,0.7c3.8,0,6.9,1.6,8.3,3.9
			l-3.1,2.8c-1.2-1.5-3.2-2.3-4.9-2.3c-3.7,0-6.2,2.4-6.2,6.2c0,3.7,2.6,6.2,6.2,6.2c2.3,0,4.3-1,5.7-2.7L21.3,17.8z"/>
	</g>
</g>
</svg>
