<?xml version="1.0" encoding="utf-8"?>
<!-- Generator: Adobe Illustrator 22.0.1, SVG Export Plug-In . SVG Version: 6.00 Build 0)  -->
<svg version="1.1" id="Слой_1" xmlns="http://www.w3.org/2000/svg" xmlns:xlink="http://www.w3.org/1999/xlink" x="0px" y="0px"
	 viewBox="0 0 100 100" style="enable-background:new 0 0 100 100;" xml:space="preserve">
<style type="text/css">
	.st0{fill:#EFEFEF;}
	.st1{fill:url(#SVGID_1_);}
	.st2{opacity:0.28;}
	.st3{fill:#FFFFFF;}
	.st4{fill:#383838;}
	.st5{fill:none;stroke:#5432E2;stroke-width:3;stroke-miterlimit:10;}
	.st6{fill:none;stroke:#383838;stroke-width:0.75;stroke-miterlimit:10;}
	.st7{fill:#5432E2;}
	.st8{fill:none;stroke:#5432E2;stroke-width:2;stroke-miterlimit:10;}
	.st9{fill:url(#SVGID_2_);}
	.st10{fill:url(#SVGID_3_);}
	.st11{opacity:0.48;}
	.st12{opacity:0.42;}
	.st13{filter:url(#Adobe_OpacityMaskFilter);}
	.st14{mask:url(#SVGID_4_);}
	.st15{fill:url(#SVGID_5_);}
	.st16{filter:url(#Adobe_OpacityMaskFilter_1_);}
	.st17{opacity:7.000000e-02;}
	.st18{fill:#9300D6;}
	.st19{fill:#DBDBDB;}
	.st20{fill:url(#SVGID_6_);}
	.st21{fill-rule:evenodd;clip-rule:evenodd;fill:#5432E2;}
	.st22{fill-rule:evenodd;clip-rule:evenodd;fill:#FFFFFF;}
	.st23{fill:none;stroke:#ED7464;stroke-width:4.8234;stroke-linecap:round;stroke-miterlimit:10;}
	.st24{clip-path:url(#SVGID_12_);}
	.st25{fill:#231F20;}
	.st26{fill:#DC1010;}
	.st27{fill:#DD1414;}
	.st28{fill:#DD1C1C;}
	.st29{fill:#DC1919;}
	.st30{fill:#DE2423;}
	.st31{clip-path:url(#SVGID_16_);}
	.st32{opacity:0.4;fill:#FFFFFF;}
	.st33{opacity:9.000000e-02;}
	.st34{clip-path:url(#SVGID_22_);fill:#333333;}
	.st35{clip-path:url(#SVGID_22_);}
	.st36{opacity:0.3;}
	.st37{clip-path:url(#SVGID_28_);fill:#352A4B;}
	.st38{clip-path:url(#SVGID_28_);}
	.st39{clip-path:url(#SVGID_32_);}
	.st40{enable-background:new    ;}
	.st41{fill:#A03A63;}
	.st42{clip-path:url(#SVGID_34_);fill:#DBDBDB;}
	.st43{clip-path:url(#SVGID_34_);}
	.st44{fill:#BDCCD4;}
	.st45{clip-path:url(#SVGID_38_);fill:#1A1A1A;}
	.st46{clip-path:url(#SVGID_38_);}
	.st47{filter:url(#Adobe_OpacityMaskFilter_2_);}
	.st48{mask:url(#SVGID_39_);}
	.st49{opacity:0.11;}
</style>
<g>
	<g>
		<path class="st7" d="M81,1H19C9.1,1,1,9.1,1,19V81c0,9.9,8.1,18,18,18H81c9.9,0,18-8.1,18-18V19C99,9.1,90.9,1,81,1z M50,82.3
			c-17.8,0-32.3-14.5-32.3-32.3c0-17.8,14.5-32.3,32.3-32.3c17.8,0,32.3,14.5,32.3,32.3C82.3,67.8,67.8,82.3,50,82.3z M83.3,24.4
			c-4.2,0-7.6-3.4-7.6-7.6s3.4-7.6,7.6-7.6c4.2,0,7.6,3.4,7.6,7.6C90.9,21,87.5,24.4,83.3,24.4z"/>
		<path class="st7" d="M50,31.4c-10.3,0-18.6,8.4-18.6,18.6c0,10.3,8.4,18.6,18.6,18.6c10.3,0,18.6-8.4,18.6-18.6
			C68.6,39.7,60.3,31.4,50,31.4z"/>
	</g>
</g>
</svg>
