<svg xmlns="http://www.w3.org/2000/svg" viewBox="0 0 122.46 51.74"><defs><style>.cls-1{opacity:0.13;isolation:isolate;}</style></defs><title>marketing-icon</title><g id="Layer_2" data-name="Layer 2"><g id="Слой_1" data-name="Слой 1"><g class="cls-1"><path d="M71.39,51.16h-14V21.77c0-4.81-1.25-8.67-6.45-8.67-3.28,0-6.46,1.93-8.29,6.07v32h-14V19.46c0-3.76-2.12-6.36-5.88-6.36A9.29,9.29,0,0,0,14,19.27V51.16H0V1.06H14V4.43c2.7-3,7.32-4.33,12-4.33,5.69,0,9.44,1.73,12.91,5.39C42.68,1.64,46.25.1,52,.1,64.45.1,71.39,6.26,71.39,17.82Z"/><path d="M79.87,7.71C84.59,2.79,92.78,0,101.93,0c12.91,0,20.53,7.61,20.53,20.81V51.16h-14V46.63c-2.11,2.5-7.41,5.11-13.48,5.11-11.08,0-18.31-6.46-18.31-16.38,0-11.56,10.79-16.48,22.74-16.48a28.87,28.87,0,0,1,9,1.26c.1-5.11-2.69-7.13-8.09-7.13s-8.67,1.15-13.87,4.81ZM108.48,34V31.7a24.81,24.81,0,0,0-7.61-1.26c-5.58,0-9.73,1.26-9.73,4.92,0,2.7,2.51,4.33,6.75,4.33C102.61,39.69,106.85,37.19,108.48,34Z"/></g></g></g></svg>