<svg id="Слой_1" data-name="Слой 1" xmlns="http://www.w3.org/2000/svg" viewBox="0 0 375.6 667.02"><defs><style>.cls-1,.cls-2{fill:#fff;}.cls-2{font-size:13.68px;font-family:Stem-Regular, Stem;}.cls-3{letter-spacing:-0.02em;}.cls-4{letter-spacing:-0.02em;}.cls-5{letter-spacing:0.01em;}.cls-6{letter-spacing:0em;}.cls-7{letter-spacing:-0.01em;}.cls-8{letter-spacing:0em;}.cls-9{letter-spacing:0em;}</style></defs><title>mobile-bg</title><path class="cls-1" d="M257.11,296c0-8.47,8-16.25,20.67-16.25,9.08,0,16.33,3.74,20.91,9.84l-7.94,7.63c-3.05-3.35-7.47-6.41-13.42-6.41-5.5,0-8,2-8,5,0,8.16,29.76,3.51,29.76,22.81,0,9.69-8.7,16.94-20.22,16.94-12.89,0-21.06-6.1-24.72-13.05l8.62-7.17a18.51,18.51,0,0,0,15.8,9.16c5.95,0,8.31-2.29,8.31-5C286.86,310.23,257.11,315.34,257.11,296Z"/><path class="cls-1" d="M76.89,324.27c-4.81,7-13.28,11-22.74,11-16.63,0-27.32-11.07-27.32-27.62C26.83,292.38,37.9,280,54.45,280c9.77,0,17.78,4.13,21.6,10.15l-8,7.33a17,17,0,0,0-12.75-6c-9.53,0-16.17,6.26-16.17,16.18,0,9.61,6.79,16.17,16,16.17a18.4,18.4,0,0,0,14.73-7.09Z"/><path class="cls-1" d="M306.32,280.93h40.82V292h-29v9.92h27.08V312.6H318.15v10.68h29.68v11.06H306.32Z"/><path class="cls-1" d="M118.16,313H94.44v21.36H82.61V280.93H94.44v21h23.72v-21H130v53.41H118.16Z"/><path class="cls-1" d="M186,325.2l-8-8,.89-.87,8,8Zm-8-8c-4.62,3.54-8,6.65-13.43,6.65-8.09,0-15.26-6.25-15.26-16.17s6.15-16.14,14.24-16.14c3.89,0,8.34,2.6,11.16,5.41,2.25-3.38,4.4-6.53,6.63-9.88-4.89-4.35-10.26-7-16.77-7a27.62,27.62,0,0,0,0,55.24A28,28,0,0,0,186,325.2Zm23.6-10.08,13.77,13.74a4.48,4.48,0,0,0,1,.78l.78.4-9,7.83L204,326.45l-29.33-29.54,5.85-8.72.78-1.16,12.21,12m58.32,8.61a27.32,27.32,0,0,1-43.66,22.19c.31-.3.6-.52.94-.82l.89-.77c.67-.6,1.36-1.21,2-1.84.39-.37.86-.61,1.22-1l3.93-3.42a15.08,15.08,0,0,0,7.2,1.81c8.4,0,15.19-6.26,15.19-16.17s-7.4-16.18-15.19-16.18c-5.53,0-10.11,2.8-14.27,7.32l-.93.93L201,291.57l.93-.93c6.9-7.76,12.74-10.63,22.41-10.63A27.11,27.11,0,0,1,251.84,307.64Z"/><text class="cls-2" transform="translate(69.78 365.43)">Кре<tspan class="cls-3" x="24.95" y="0">а</tspan><tspan x="32" y="0">тивное а</tspan><tspan class="cls-4" x="89.92" y="0">г</tspan><tspan x="95.71" y="0">ен</tspan><tspan class="cls-5" x="111.56" y="0">с</tspan><tspan class="cls-6" x="118.95" y="0">тво п</tspan><tspan class="cls-7" x="153.49" y="0">о</tspan><tspan x="161.75" y="0">лно</tspan><tspan class="cls-4" x="186.1" y="0">г</tspan><tspan x="191.88" y="0">о ци</tspan><tspan class="cls-8" x="220.89" y="0">к</tspan><tspan class="cls-9" x="228.02" y="0">ла</tspan></text></svg>