<?xml version="1.0" encoding="utf-8"?>
<!-- Generator: Adobe Illustrator 23.0.1, SVG Export Plug-In . SVG Version: 6.00 Build 0)  -->
<svg version="1.1" id="Layer_1" xmlns="http://www.w3.org/2000/svg" xmlns:xlink="http://www.w3.org/1999/xlink" x="0px" y="0px"
	 viewBox="0 0 321 88.5" style="enable-background:new 0 0 321 88.5;" xml:space="preserve">
<style type="text/css">
	.st0{fill:#FFFFFF;}
</style>
<title>mobile-logo</title>
<g>
	<path class="st0" d="M44,76.2h1.2v4.6l4.8-4.6h1.6l-4.5,4.3l4.8,5.2h-1.6l-4.1-4.4l-1,1v3.4H44V76.2z"/>
	<path class="st0" d="M52.8,78.6H54v0.9c0.6-0.7,1.4-1.1,2.3-1c1.8,0,3.3,1.4,3.4,3.2c0,0.1,0,0.2,0,0.3c0.1,1.9-1.3,3.6-3.2,3.8
		c-0.1,0-0.2,0-0.3,0c-0.8,0.1-1.5-0.2-2.1-0.7v3.3h-1.2V78.6z M54,81v2.7c0.4,0.7,1.2,1.1,2,1.1c1.3,0,2.4-1.1,2.4-2.4
		c0-0.1,0-0.1,0-0.2c0.2-1.3-0.7-2.4-2-2.6c-0.1,0-0.2,0-0.4,0C55.2,79.6,54.3,80.1,54,81z"/>
	<path class="st0" d="M67.2,84.4c-0.6,1-1.7,1.5-2.8,1.5c-1.9,0.2-3.6-1.3-3.8-3.2c0-0.2,0-0.3,0-0.5c-0.2-1.9,1.3-3.5,3.1-3.7
		c0.2,0,0.3,0,0.5,0c1.7-0.1,3.2,1.2,3.3,2.9c0,0.1,0,0.2,0,0.3c0,0.3,0,0.6-0.1,0.9h-5.6c0.1,1.3,1.2,2.3,2.4,2.2
		c0.1,0,0.1,0,0.2,0c0.8,0,1.6-0.4,2.1-1.1L67.2,84.4z M61.8,81.5h4.5c0-1.1-0.9-2-2-2c-0.1,0-0.1,0-0.2,0
		C62.9,79.4,61.9,80.3,61.8,81.5z"/>
	<path class="st0" d="M68.7,79.5c0.8-0.7,1.8-1,2.8-1c1.4-0.2,2.7,0.8,2.9,2.3c0,0.2,0,0.4,0,0.6v4.4h-1.1v-1
		c-0.6,0.8-1.5,1.2-2.5,1.2c-1.6,0-2.6-0.9-2.6-2.2c0-1.5,1.4-2.2,3.4-2.2c0.6,0,1.1,0.1,1.7,0.2c0-1.3-0.4-2.1-1.9-2.1
		c-0.8,0-1.5,0.3-2.1,0.8L68.7,79.5z M73.3,83.4v-0.7c-0.5-0.1-1-0.2-1.5-0.2c-1.4,0-2.3,0.3-2.3,1.2s0.7,1.2,1.6,1.2
		C72,84.8,72.9,84.2,73.3,83.4z"/>
	<path class="st0" d="M75,78.6h6.6v1.1h-2.8v6h-1.1v-6H75V78.6z"/>
	<path class="st0" d="M82.4,85.7v-7.1h1.2v5.3l4.3-5.3H89v7.1h-1.2v-5.3l-4.3,5.3H82.4z"/>
	<path class="st0" d="M90.6,78.6h3c1.9,0,2.9,0.5,2.9,1.8c0,0.7-0.4,1.3-1,1.6c0.7,0.2,1.2,0.9,1.2,1.7c0,1.3-1.1,2-2.9,2h-3.2V78.6
		z M91.8,79.7v1.9H94c0.8,0,1.3-0.3,1.3-1s-0.7-0.9-1.7-0.9L91.8,79.7z M91.8,82.6v2h1.9c1.2,0,1.8-0.3,1.8-1s-0.6-1-1.7-1H91.8z"/>
	<path class="st0" d="M103.3,82.7h-4.1v3.1H98v-7.1h1.1v3h4.1v-3h1.1v7.1h-1.1L103.3,82.7z"/>
	<path class="st0" d="M109.5,78.4c2,0,3.7,1.7,3.6,3.8c0,2-1.7,3.7-3.8,3.6c-2,0-3.6-1.7-3.6-3.7c-0.1-2,1.5-3.6,3.5-3.7
		C109.3,78.4,109.4,78.4,109.5,78.4z M109.5,84.8c1.4,0,2.5-1,2.5-2.4c0-0.1,0-0.2,0-0.2c0.1-1.4-1-2.6-2.4-2.6c-0.1,0-0.1,0-0.2,0
		c-1.4,0.1-2.5,1.3-2.5,2.8C107.1,83.6,108.1,84.7,109.5,84.8L109.5,84.8z"/>
	<path class="st0" d="M120.8,84.4c-0.6,1-1.7,1.5-2.8,1.5c-1.9,0.2-3.6-1.3-3.8-3.2c0-0.2,0-0.3,0-0.5c-0.2-1.9,1.3-3.5,3.1-3.7
		c0.2,0,0.3,0,0.5,0c1.7-0.1,3.2,1.2,3.2,3c0,0.1,0,0.2,0,0.3c0,0.3,0,0.6-0.1,0.9h-5.6c0.1,1.3,1.2,2.3,2.4,2.2c0.1,0,0.1,0,0.2,0
		c0.8,0,1.6-0.4,2.1-1.1L120.8,84.4z M115.3,81.5h4.5c0-1.1-0.9-2-2-2c-0.1,0-0.1,0-0.2,0C116.5,79.4,115.5,80.3,115.3,81.5z"/>
	<path class="st0" d="M126.4,79.5c0.8-0.7,1.8-1,2.9-1c1.4-0.2,2.7,0.8,2.9,2.3c0,0.2,0,0.4,0,0.6v4.4H131v-1
		c-0.6,0.8-1.5,1.2-2.5,1.2c-1.5,0-2.6-0.9-2.6-2.2c0-1.5,1.3-2.2,3.4-2.2c0.6,0,1.1,0.1,1.7,0.2c0-1.3-0.4-2.1-1.9-2.1
		c-0.8,0-1.5,0.3-2.1,0.8L126.4,79.5z M131,83.4v-0.7c-0.5-0.1-1-0.2-1.5-0.2c-1.4,0-2.3,0.3-2.3,1.2s0.7,1.2,1.6,1.2
		C129.7,84.8,130.6,84.2,131,83.4z"/>
	<path class="st0" d="M133.7,78.6h5.2v1.1h-4v6h-1.1L133.7,78.6z"/>
	<path class="st0" d="M145.7,84.4c-0.6,1-1.7,1.5-2.9,1.5c-1.9,0.2-3.6-1.3-3.8-3.2c0-0.2,0-0.3,0-0.5c-0.2-1.9,1.2-3.5,3.1-3.7
		c0.2,0,0.3,0,0.5,0c1.7-0.1,3.2,1.2,3.3,2.9c0,0.1,0,0.2,0,0.3c0,0.3,0,0.6-0.1,0.9h-5.6c0,1.3,1.1,2.3,2.4,2.2c0.1,0,0.1,0,0.2,0
		c0.8,0,1.6-0.4,2.1-1.1L145.7,84.4z M140.3,81.5h4.5c0-1.1-0.9-2-2-2c0,0-0.1,0-0.1,0C141.5,79.4,140.4,80.3,140.3,81.5z"/>
	<path class="st0" d="M152.5,82.7h-4.1v3.1h-1.1v-7.1h1.1v3h4.1v-3h1.1v7.1h-1.1V82.7z"/>
	<path class="st0" d="M161.7,84.3c-0.6,1-1.7,1.6-2.9,1.6c-1.9,0.2-3.6-1.3-3.8-3.2c0-0.1,0-0.3,0-0.4c-0.1-2,1.5-3.6,3.5-3.7
		c0.1,0,0.2,0,0.3,0c1.1-0.1,2.2,0.5,2.9,1.4l-0.9,0.6c-0.4-0.7-1.2-1-2-1c-1.4,0-2.6,1.1-2.7,2.6s1.1,2.6,2.6,2.7
		c0.1,0,0.2,0,0.3,0c0.8,0,1.6-0.4,2-1.1L161.7,84.3z"/>
	<path class="st0" d="M161.9,78.6h6.6v1.1h-2.8v6h-1.1v-6h-2.7V78.6z"/>
	<path class="st0" d="M169.4,78.6h3c1.9,0,2.9,0.5,2.9,1.8c0,0.6-0.3,1.2-0.9,1.6c0.7,0.2,1.2,0.9,1.1,1.7c0,1.3-1.1,2-2.9,2h-3.2
		L169.4,78.6z M170.5,79.7v1.9h2.2c0.8,0,1.3-0.3,1.3-1s-0.7-0.9-1.7-0.9L170.5,79.7z M170.5,82.6v2h1.9c1.2,0,1.8-0.3,1.8-1
		s-0.6-1-1.7-1H170.5z"/>
	<path class="st0" d="M180.1,78.4c2,0,3.7,1.7,3.6,3.8c0,2-1.7,3.7-3.8,3.6c-2,0-3.6-1.7-3.6-3.7c-0.1-2,1.5-3.6,3.5-3.7
		C179.9,78.4,180,78.4,180.1,78.4z M180.1,84.8c1.4,0.1,2.5-1,2.6-2.4c0-0.1,0-0.2,0-0.3c0.1-1.4-1-2.6-2.4-2.6c-0.1,0-0.1,0-0.2,0
		c-1.4,0.1-2.5,1.3-2.5,2.8C177.7,83.6,178.8,84.7,180.1,84.8z"/>
	<path class="st0" d="M194.5,79.7h-4v6h-1.1v-7.1h6.3v7.1h-1.1L194.5,79.7z"/>
	<path class="st0" d="M200.6,78.4c2,0,3.7,1.7,3.6,3.8c0,2-1.7,3.7-3.8,3.6c-2,0-3.6-1.7-3.6-3.7c-0.1-2,1.5-3.6,3.5-3.7
		C200.4,78.4,200.5,78.4,200.6,78.4z M200.6,84.8c1.4,0.1,2.5-1,2.6-2.3c0-0.1,0-0.2,0-0.3c0.1-1.4-1-2.6-2.4-2.6
		c-0.1,0-0.1,0-0.2,0c-1.4,0.1-2.5,1.3-2.5,2.8C198.3,83.6,199.3,84.7,200.6,84.8z"/>
	<path class="st0" d="M210.6,79.7h-3V80c0,4.7-1.1,5.9-2.8,5.7v-1.1c0.9,0,1.7-0.4,1.7-4.6v-1.5h5.3v7.1h-1.1L210.6,79.7z"/>
	<path class="st0" d="M218.6,82.7h-4.1v3.1h-1.1v-7.1h1.1v3h4.1v-3h1.1v7.1h-1.1V82.7z"/>
	<path class="st0" d="M224.8,78.4c2,0,3.7,1.7,3.6,3.8c0,2-1.7,3.7-3.8,3.6c-2,0-3.6-1.7-3.6-3.7c-0.1-2,1.5-3.6,3.5-3.7
		C224.6,78.4,224.7,78.4,224.8,78.4z M224.8,84.8c1.4,0.1,2.5-1,2.6-2.3c0-0.1,0-0.2,0-0.3c0.1-1.4-1-2.6-2.4-2.6
		c-0.1,0-0.1,0-0.2,0c-1.4,0.1-2.5,1.3-2.5,2.8C222.4,83.6,223.5,84.7,224.8,84.8z"/>
	<path class="st0" d="M229.9,78.6h5.2v1.1h-4v6h-1.1L229.9,78.6z"/>
	<path class="st0" d="M239,78.4c2,0,3.7,1.7,3.6,3.8c0,2-1.7,3.7-3.8,3.6c-2,0-3.6-1.7-3.6-3.7c-0.1-2,1.5-3.6,3.5-3.7
		C238.8,78.4,238.9,78.4,239,78.4z M239,84.8c1.4,0.1,2.5-1,2.6-2.3c0-0.1,0-0.2,0-0.3c0.1-1.4-1-2.6-2.4-2.6c-0.1,0-0.1,0-0.2,0
		c-1.4,0.1-2.5,1.3-2.5,2.8C236.6,83.6,237.7,84.7,239,84.8z"/>
	<path class="st0" d="M248.2,78.6h1.1v6h4v-6h1.1v6h1v2.8h-1.1v-1.7h-6.2L248.2,78.6z"/>
	<path class="st0" d="M256.5,85.7v-7.1h1.1v5.3l4.3-5.3h1.1v7.1h-1.1v-5.3l-4.3,5.3H256.5z"/>
	<path class="st0" d="M264.7,78.6h1.1v3.2l3.6-3.2h1.6l-3.7,3.3l3.9,3.8h-1.5l-3.2-3.1l-0.6,0.6v2.6h-1.1L264.7,78.6z"/>
	<path class="st0" d="M276.8,79.7h-3V80c0,4.7-1.1,5.9-2.8,5.7v-1.1c0.9,0,1.7-0.4,1.7-4.6v-1.5h5.3v7.1h-1.1L276.8,79.7z"/>
	<path class="st0" d="M279.6,79.5c0.8-0.7,1.8-1,2.8-1c1.4-0.2,2.7,0.8,2.9,2.3c0,0.2,0,0.4,0,0.6v4.4h-1.1v-1
		c-0.6,0.8-1.5,1.2-2.5,1.2c-1.5,0-2.6-0.9-2.6-2.2c0-1.5,1.4-2.2,3.4-2.2c0.6,0,1.1,0.1,1.7,0.2c0-1.3-0.4-2.1-1.9-2.1
		c-0.8,0-1.5,0.3-2.1,0.8L279.6,79.5z M284.2,83.4v-0.7c-0.5-0.1-1-0.2-1.5-0.2c-1.4,0-2.3,0.3-2.3,1.2s0.7,1.2,1.6,1.2
		C282.9,84.8,283.8,84.2,284.2,83.4L284.2,83.4z"/>
	<g>
		<path class="st0" d="M230.3,16.2c0-8.5,8-16.2,20.7-16.2c9.1,0,16.3,3.7,20.9,9.8l-7.9,7.6c-3.1-3.4-7.5-6.4-13.4-6.4
			c-5.5,0-8,2-8,5c0,8.2,29.7,3.5,29.7,22.8c0,9.7-8.7,16.9-20.2,16.9c-12.9,0-21-6.1-24.7-13l8.6-7.2c3.5,5.6,9.2,9.1,15.8,9.1
			c5.9,0,8.3-2.3,8.3-5C260.1,30.5,230.3,35.6,230.3,16.2z"/>
	</g>
	<g>
		<path class="st0" d="M50.3,44.5c-4.8,7-13.2,11-22.7,11c-16.6,0-27.3-11.1-27.3-27.6c0-15.2,11.1-27.6,27.6-27.6
			c9.8,0,17.8,4.1,21.6,10.1l-8,7.3c-3.2-4-8.4-6-12.7-6c-9.5,0-16.1,6.3-16.1,16.1c0,9.6,6.8,16.1,16,16.1
			c5.7,0.1,11.2-2.6,14.7-7.1L50.3,44.5z"/>
	</g>
	<g>
		<path class="st0" d="M279.5,1.2h40.8v11.1h-29v9.9h27.1v10.7h-27.1v10.7H321v11.1h-41.5V1.2z"/>
	</g>
	<g>
		<path class="st0" d="M91.5,33.2H67.8v21.3H56V1.2h11.8v21h23.7v-21h11.8v53.4H91.5V33.2z"/>
	</g>
	<g>
		<path class="st0" d="M190.4,42.3l-0.6-0.3c-0.5-0.3-0.9-0.6-1.3-1l-13.6-13.6l-8-8l-12.2-12l0,0c-4.9-4.3-10.3-7-16.8-7
			c-15.5,0-27.5,12.2-27.5,27.6c0,15.9,12.3,27.6,27.5,27.6c8.7,0,16.2-4,21.4-10l0.1-0.1l0,0c0.5-0.5,0.5-1.2,0-1.7c0,0,0,0,0,0
			l-6.3-6.3c-0.5-0.4-1.2-0.4-1.7,0l0,0l-0.1,0.1c-4.6,3.5-7.9,6.6-13.4,6.6c-8.1,0-15.2-6.3-15.2-16.1s6.1-16.1,14.2-16.1
			c3.9,0,8.3,2.6,11.2,5.4l0,0l29.3,29.5c0,0,0.1,0.1,0.1,0.1l4.1,3.3l0,0c4.6,3.3,9.9,5.4,16.2,5.4c15.2,0,27.4-11.9,27.4-27.6
			c0-15.9-12.2-27.6-27.4-27.6c-9.7,0-15.5,2.9-22.4,10.6l-0.1,0.1c-0.5,0.5-0.5,1.2,0,1.7l6.4,6.4c0.5,0.5,1.2,0.5,1.7,0
			c0,0,0,0,0,0l0.1-0.1c4.1-4.5,8.7-7.3,14.3-7.3c7.8,0,15.2,6.3,15.2,16.1S206,44,197.7,44C195.1,44.1,192.7,43.4,190.4,42.3"/>
	</g>
</g>
</svg>
