<svg xmlns="http://www.w3.org/2000/svg" viewBox="0 0 52 52"><defs><style>.cls-1{opacity:0.27;isolation:isolate;}.cls-2{fill:#fff;}</style></defs><title>project-click</title><g id="Layer_2" data-name="Layer 2"><g id="Слой_1" data-name="Слой 1"><circle class="cls-1" cx="26" cy="26" r="26"/><path class="cls-2" d="M38,21l-5.2-5.8a2.78,2.78,0,0,0-3.8,0,2.4,2.4,0,0,0-.7,1.2,2.73,2.73,0,0,0-3.5.2,2.4,2.4,0,0,0-.7,1.2,2.73,2.73,0,0,0-3.5.2,4.13,4.13,0,0,0-.7,1.1l-2.5-2.5a2.69,2.69,0,0,0-3.8,3.8l9.5,9.5-5.6.9a3.13,3.13,0,0,0-2.7,3.1A2.05,2.05,0,0,0,16.9,36H30a7.73,7.73,0,0,0,5.4-2.2l2.2-2.2a7.73,7.73,0,0,0,2.2-5.4A6.56,6.56,0,0,0,38,21Zm-1.2,9.6-2.2,2.2a6.2,6.2,0,0,1-4.4,1.8H17a.68.68,0,0,1-.7-.7,1.72,1.72,0,0,1,1.5-1.7l7-1.1a.63.63,0,0,0,.6-.5.66.66,0,0,0-.2-.7L14.7,19.4a1.27,1.27,0,0,1,0-1.8,1.49,1.49,0,0,1,.9-.4,1.22,1.22,0,0,1,.9.4l7,7a.67.67,0,0,0,1,0,.72.72,0,0,0,0-1l-2.8-2.8A1.27,1.27,0,0,1,23.5,19l2.8,2.8a.67.67,0,0,0,1,0,.72.72,0,0,0,0-1l-1.5-1.5a1.27,1.27,0,0,1,1.8-1.8L29.1,19h0a.71.71,0,0,0,1-1H30a1.49,1.49,0,0,1-.4-.9,1.09,1.09,0,0,1,.4-.9,1.27,1.27,0,0,1,1.8,0L37,21.9a6.66,6.66,0,0,1,1.6,4.2A6.27,6.27,0,0,1,36.8,30.6Z"/><path class="cls-2" d="M21.3,16a6.39,6.39,0,0,0-5.7-3.7,6.28,6.28,0,0,0-2.6,12c.1,0,.2.1.3.1a.68.68,0,0,0,.6-.4.63.63,0,0,0-.3-.9,4.86,4.86,0,0,1,2-9.3A4.79,4.79,0,0,1,20,16.7a.61.61,0,0,0,.9.3A.73.73,0,0,0,21.3,16Z"/></g></g></svg>