<?xml version="1.0" encoding="utf-8"?>
<!-- Generator: Adobe Illustrator 22.0.1, SVG Export Plug-In . SVG Version: 6.00 Build 0)  -->
<svg version="1.1" id="Слой_1" xmlns="http://www.w3.org/2000/svg" xmlns:xlink="http://www.w3.org/1999/xlink" x="0px" y="0px"
	 viewBox="0 0 100 100" style="enable-background:new 0 0 100 100;" xml:space="preserve">
<style type="text/css">
	.st0{fill:#EFEFEF;}
	.st1{fill:url(#SVGID_1_);}
	.st2{opacity:0.28;}
	.st3{fill:#FFFFFF;}
	.st4{fill:#383838;}
	.st5{fill:none;stroke:#5432E2;stroke-width:3;stroke-miterlimit:10;}
	.st6{fill:none;stroke:#383838;stroke-width:0.75;stroke-miterlimit:10;}
	.st7{fill:#5432E2;}
	.st8{fill:none;stroke:#5432E2;stroke-width:2;stroke-miterlimit:10;}
	.st9{fill:url(#SVGID_2_);}
	.st10{fill:url(#SVGID_3_);}
	.st11{opacity:0.48;}
	.st12{opacity:0.42;}
	.st13{filter:url(#Adobe_OpacityMaskFilter);}
	.st14{mask:url(#SVGID_4_);}
	.st15{fill:url(#SVGID_5_);}
	.st16{filter:url(#Adobe_OpacityMaskFilter_1_);}
	.st17{opacity:7.000000e-02;}
	.st18{fill:#9300D6;}
	.st19{fill:#DBDBDB;}
	.st20{fill:url(#SVGID_6_);}
	.st21{fill-rule:evenodd;clip-rule:evenodd;fill:#5432E2;}
	.st22{fill-rule:evenodd;clip-rule:evenodd;fill:#FFFFFF;}
	.st23{fill:none;stroke:#ED7464;stroke-width:4.8234;stroke-linecap:round;stroke-miterlimit:10;}
	.st24{clip-path:url(#SVGID_12_);}
	.st25{fill:#231F20;}
	.st26{fill:#DC1010;}
	.st27{fill:#DD1414;}
	.st28{fill:#DD1C1C;}
	.st29{fill:#DC1919;}
	.st30{fill:#DE2423;}
	.st31{clip-path:url(#SVGID_16_);}
	.st32{opacity:0.4;fill:#FFFFFF;}
	.st33{opacity:9.000000e-02;}
	.st34{clip-path:url(#SVGID_22_);fill:#333333;}
	.st35{clip-path:url(#SVGID_22_);}
	.st36{opacity:0.3;}
	.st37{clip-path:url(#SVGID_28_);fill:#352A4B;}
	.st38{clip-path:url(#SVGID_28_);}
	.st39{clip-path:url(#SVGID_32_);}
	.st40{enable-background:new    ;}
	.st41{fill:#A03A63;}
	.st42{clip-path:url(#SVGID_34_);fill:#DBDBDB;}
	.st43{clip-path:url(#SVGID_34_);}
	.st44{fill:#BDCCD4;}
	.st45{clip-path:url(#SVGID_38_);fill:#1A1A1A;}
	.st46{clip-path:url(#SVGID_38_);}
	.st47{filter:url(#Adobe_OpacityMaskFilter_2_);}
	.st48{mask:url(#SVGID_39_);}
	.st49{opacity:0.11;}
</style>
<g>
	<path class="st21" d="M99.6,47.8C98.9,21.8,77.6,1,51.2,1C25.2,1,4,21.3,2.9,46.9c-0.1,0.6-0.1,1.4-0.1,2.1c0,9,2.6,17.5,7,24.8
		L1,99.6l26.9-8.5c7,3.8,14.9,5.9,23.4,5.9C78,97,99.7,75.6,99.7,49C99.7,48.6,99.6,48.2,99.6,47.8L99.6,47.8z"/>
	<path class="st22" d="M73.4,58.7c-1.2-0.6-7-3.5-8.1-3.9c-1.2-0.3-1.9-0.6-2.7,0.6c-0.8,1.2-3.1,3.8-3.7,4.5
		c-0.7,0.9-1.4,0.9-2.5,0.4c-1.3-0.6-5.1-1.8-9.6-5.9c-3.6-3.2-6-7-6.6-8.1c-0.6-1.3-0.1-1.8,0.5-2.5c0.6-0.5,1.2-1.3,1.8-2
		c0.2-0.2,0.3-0.3,0.4-0.5c0.3-0.5,0.5-0.9,0.7-1.4c0.4-0.8,0.3-1.5-0.1-2c-0.2-0.6-2.6-6.5-3.6-8.8c-1-2.4-2-2-2.6-2
		c-0.8,0-1.5-0.1-2.3-0.1c-0.9,0-2.1,0.3-3.2,1.5c-1.2,1.2-4.2,4-4.2,9.8c0,1.3,0.3,2.7,0.7,4c1.1,4.2,3.8,7.6,4.2,8.2
		c0.6,0.8,8.2,13.1,20.3,17.8C64.9,73,64.9,71.4,67,71.2c2.1-0.2,7-2.8,8-5.6c1-2.7,1-5.1,0.6-5.6C75.4,59.6,74.6,59.3,73.4,58.7
		L73.4,58.7z"/>
</g>
</svg>
